{
	"patcher" : 	{
		"fileversion" : 1,
		"appversion" : 		{
			"major" : 6,
			"minor" : 1,
			"revision" : 3,
			"architecture" : "x86"
		}
,
		"rect" : [ 785.0, -959.0, 709.0, 609.0 ],
		"bglocked" : 0,
		"openinpresentation" : 0,
		"default_fontsize" : 12.0,
		"default_fontface" : 0,
		"default_fontname" : "Arial",
		"gridonopen" : 0,
		"gridsize" : [ 12.0, 12.0 ],
		"gridsnaponopen" : 0,
		"statusbarvisible" : 2,
		"toolbarvisible" : 1,
		"boxanimatetime" : 200,
		"imprint" : 0,
		"enablehscroll" : 1,
		"enablevscroll" : 1,
		"devicewidth" : 0.0,
		"description" : "",
		"digest" : "",
		"tags" : "",
		"boxes" : [ 			{
				"box" : 				{
					"fontname" : "Arial",
					"fontsize" : 12.0,
					"id" : "obj-27",
					"maxclass" : "newobj",
					"numinlets" : 2,
					"numoutlets" : 2,
					"outlettype" : [ "", "" ],
					"patching_rect" : [ 394.428589, 258.0, 100.0, 20.0 ],
					"text" : "route text"
				}

			}
, 			{
				"box" : 				{
					"fontname" : "Arial",
					"fontsize" : 12.0,
					"frgb" : 0.0,
					"id" : "obj-26",
					"maxclass" : "textedit",
					"numinlets" : 1,
					"numoutlets" : 4,
					"outlettype" : [ "", "int", "", "" ],
					"parameter_enable" : 0,
					"patching_rect" : [ 394.428589, 205.0, 100.0, 50.0 ],
					"text" : "60 63 66 70"
				}

			}
, 			{
				"box" : 				{
					"fontname" : "Arial",
					"fontsize" : 12.0,
					"id" : "obj-20",
					"linecount" : 4,
					"maxclass" : "message",
					"numinlets" : 2,
					"numoutlets" : 1,
					"outlettype" : [ "" ],
					"patching_rect" : [ 475.0, 371.5, 50.0, 58.0 ],
					"presentation_rect" : [ 464.571411, 371.5, 0.0, 0.0 ],
					"text" : "60 100 63 100 66 100 70 100"
				}

			}
, 			{
				"box" : 				{
					"fontname" : "Arial",
					"fontsize" : 12.0,
					"id" : "obj-21",
					"maxclass" : "newobj",
					"numinlets" : 1,
					"numoutlets" : 4,
					"outlettype" : [ "float", "float", "float", "float" ],
					"patching_rect" : [ 394.428589, 281.0, 147.571426, 20.0 ],
					"presentation_rect" : [ 392.0, 281.0, 0.0, 0.0 ],
					"text" : "unpack 0. 0. 0. 0."
				}

			}
, 			{
				"box" : 				{
					"id" : "obj-22",
					"maxclass" : "nslider",
					"mode" : 1,
					"numinlets" : 2,
					"numoutlets" : 2,
					"outlettype" : [ "int", "int" ],
					"parameter_enable" : 0,
					"patching_rect" : [ 394.428589, 371.5, 75.0, 198.0 ],
					"presentation" : 1,
					"presentation_rect" : [ 392.0, 371.5, 113.0, 298.320007 ]
				}

			}
, 			{
				"box" : 				{
					"fontname" : "Arial",
					"fontsize" : 12.0,
					"id" : "obj-23",
					"maxclass" : "newobj",
					"numinlets" : 8,
					"numoutlets" : 1,
					"outlettype" : [ "" ],
					"patching_rect" : [ 394.428589, 309.5, 169.0, 20.0 ],
					"presentation_rect" : [ 392.0, 309.5, 0.0, 0.0 ],
					"text" : "pack 0 100 0 100 0 100 0 100"
				}

			}
, 			{
				"box" : 				{
					"fontname" : "Arial",
					"fontsize" : 12.0,
					"id" : "obj-24",
					"maxclass" : "newobj",
					"numinlets" : 1,
					"numoutlets" : 1,
					"outlettype" : [ "" ],
					"patching_rect" : [ 394.428589, 341.5, 100.0, 20.0 ],
					"presentation_rect" : [ 392.0, 341.5, 0.0, 0.0 ],
					"text" : "prepend chord"
				}

			}
, 			{
				"box" : 				{
					"fontname" : "Arial",
					"fontsize" : 13.0,
					"id" : "obj-52",
					"maxclass" : "newobj",
					"numinlets" : 3,
					"numoutlets" : 0,
					"patching_rect" : [ 128.0, 586.0, 75.0, 21.0 ],
					"text" : "noteout"
				}

			}
, 			{
				"box" : 				{
					"fontname" : "Arial",
					"fontsize" : 13.0,
					"id" : "obj-53",
					"maxclass" : "newobj",
					"numinlets" : 2,
					"numoutlets" : 1,
					"outlettype" : [ "" ],
					"patching_rect" : [ 128.0, 557.0, 75.0, 21.0 ],
					"text" : "pack"
				}

			}
, 			{
				"box" : 				{
					"fontname" : "Arial",
					"fontsize" : 12.0,
					"id" : "obj-67",
					"maxclass" : "newobj",
					"numinlets" : 0,
					"numoutlets" : 0,
					"patching_rect" : [ 251.5, 464.5, 121.0, 20.0 ],
					"presentation" : 1,
					"presentation_rect" : [ 525.0, 307.5, 121.0, 20.0 ],
					"text" : "Internal_Synthesizer",
					"varname" : "Internal_Synth_OSC"
				}

			}
, 			{
				"box" : 				{
					"fontname" : "Gill Sans",
					"fontsize" : 12.0,
					"frgb" : 0.0,
					"id" : "obj-88",
					"linecount" : 2,
					"maxclass" : "comment",
					"numinlets" : 1,
					"numoutlets" : 0,
					"patching_rect" : [ 137.0, 221.0, 100.0, 34.0 ],
					"presentation" : 1,
					"presentation_linecount" : 2,
					"presentation_rect" : [ 32.0, 157.0, 120.0, 34.0 ],
					"text" : "CHORDS BEING\nLEARNED"
				}

			}
, 			{
				"box" : 				{
					"fontname" : "Arial",
					"fontsize" : 12.0,
					"id" : "obj-58",
					"linecount" : 4,
					"maxclass" : "message",
					"numinlets" : 2,
					"numoutlets" : 1,
					"outlettype" : [ "" ],
					"patching_rect" : [ 200.571411, 348.5, 50.0, 58.0 ],
					"text" : "59 100 63 100 68 100 71 100"
				}

			}
, 			{
				"box" : 				{
					"fontname" : "Arial",
					"fontsize" : 12.0,
					"id" : "obj-48",
					"maxclass" : "newobj",
					"numinlets" : 1,
					"numoutlets" : 4,
					"outlettype" : [ "float", "float", "float", "float" ],
					"patching_rect" : [ 128.0, 258.0, 147.571426, 20.0 ],
					"text" : "unpack 0. 0. 0. 0."
				}

			}
, 			{
				"box" : 				{
					"id" : "obj-42",
					"maxclass" : "nslider",
					"mode" : 1,
					"numinlets" : 2,
					"numoutlets" : 2,
					"outlettype" : [ "int", "int" ],
					"parameter_enable" : 0,
					"patching_rect" : [ 128.0, 348.5, 75.0, 198.0 ],
					"presentation" : 1,
					"presentation_rect" : [ 32.0, 191.0, 113.0, 298.320007 ]
				}

			}
, 			{
				"box" : 				{
					"fontname" : "Arial",
					"fontsize" : 12.0,
					"id" : "obj-44",
					"maxclass" : "newobj",
					"numinlets" : 8,
					"numoutlets" : 1,
					"outlettype" : [ "" ],
					"patching_rect" : [ 128.0, 286.5, 169.0, 20.0 ],
					"text" : "pack 0 100 0 100 0 100 0 100"
				}

			}
, 			{
				"box" : 				{
					"fontname" : "Arial",
					"fontsize" : 12.0,
					"id" : "obj-45",
					"maxclass" : "newobj",
					"numinlets" : 1,
					"numoutlets" : 1,
					"outlettype" : [ "" ],
					"patching_rect" : [ 128.0, 318.5, 100.0, 20.0 ],
					"text" : "prepend chord"
				}

			}
, 			{
				"box" : 				{
					"fontname" : "Arial",
					"fontsize" : 12.0,
					"id" : "obj-16",
					"maxclass" : "message",
					"numinlets" : 2,
					"numoutlets" : 1,
					"outlettype" : [ "" ],
					"patching_rect" : [ 200.571411, 157.0, 74.0, 18.0 ],
					"presentation_rect" : [ 169.0, 163.0, 0.0, 0.0 ],
					"text" : "57 61 64 69"
				}

			}
, 			{
				"box" : 				{
					"fontname" : "Arial",
					"fontsize" : 12.0,
					"id" : "obj-15",
					"maxclass" : "message",
					"numinlets" : 2,
					"numoutlets" : 1,
					"outlettype" : [ "" ],
					"patching_rect" : [ 551.0, 141.0, 57.0, 18.0 ],
					"presentation_rect" : [ 551.0, 144.0, 0.0, 0.0 ],
					"text" : "52 57 61"
				}

			}
, 			{
				"box" : 				{
					"fontname" : "Arial",
					"fontsize" : 12.0,
					"id" : "obj-14",
					"maxclass" : "message",
					"numinlets" : 2,
					"numoutlets" : 1,
					"outlettype" : [ "" ],
					"patching_rect" : [ 485.0, 141.0, 57.0, 18.0 ],
					"presentation_rect" : [ 485.0, 142.0, 0.0, 0.0 ],
					"text" : "57 61 64"
				}

			}
, 			{
				"box" : 				{
					"fontname" : "Arial",
					"fontsize" : 12.0,
					"id" : "obj-13",
					"maxclass" : "message",
					"numinlets" : 2,
					"numoutlets" : 1,
					"outlettype" : [ "" ],
					"patching_rect" : [ 420.0, 141.0, 57.0, 18.0 ],
					"presentation_rect" : [ 420.0, 141.0, 0.0, 0.0 ],
					"text" : "61 64 69"
				}

			}
, 			{
				"box" : 				{
					"fontname" : "Arial",
					"fontsize" : 12.0,
					"id" : "obj-9",
					"maxclass" : "message",
					"numinlets" : 2,
					"numoutlets" : 1,
					"outlettype" : [ "" ],
					"patching_rect" : [ 366.0, 141.0, 32.5, 18.0 ],
					"presentation_rect" : [ 366.0, 141.0, 0.0, 0.0 ],
					"text" : "3 5"
				}

			}
, 			{
				"box" : 				{
					"fontname" : "Arial",
					"fontsize" : 12.0,
					"id" : "obj-11",
					"maxclass" : "message",
					"numinlets" : 2,
					"numoutlets" : 1,
					"outlettype" : [ "" ],
					"patching_rect" : [ 301.0, 141.0, 54.0, 18.0 ],
					"text" : "1 2 9 10"
				}

			}
, 			{
				"box" : 				{
					"fontname" : "Arial",
					"fontsize" : 12.0,
					"id" : "obj-7",
					"maxclass" : "newobj",
					"numinlets" : 1,
					"numoutlets" : 1,
					"outlettype" : [ "" ],
					"patching_rect" : [ 301.0, 169.0, 167.0, 20.0 ],
					"text" : "prepend max_normalorder"
				}

			}
, 			{
				"box" : 				{
					"fontname" : "Arial",
					"fontsize" : 12.0,
					"id" : "obj-5",
					"maxclass" : "message",
					"numinlets" : 2,
					"numoutlets" : 1,
					"outlettype" : [ "" ],
					"patching_rect" : [ 217.0, 105.0, 44.0, 18.0 ],
					"text" : "4 9 13"
				}

			}
, 			{
				"box" : 				{
					"fontname" : "Arial",
					"fontsize" : 12.0,
					"id" : "obj-28",
					"maxclass" : "newobj",
					"numinlets" : 1,
					"numoutlets" : 1,
					"outlettype" : [ "" ],
					"patching_rect" : [ 26.0, 180.0, 129.0, 20.0 ],
					"text" : "prepend max_analyze"
				}

			}
, 			{
				"box" : 				{
					"fontname" : "Gill Sans",
					"fontsize" : 12.0,
					"frgb" : 0.0,
					"id" : "obj-19",
					"maxclass" : "comment",
					"numinlets" : 1,
					"numoutlets" : 0,
					"patching_rect" : [ 85.0, 84.0, 75.0, 20.0 ],
					"presentation" : 1,
					"presentation_rect" : [ 92.0, 127.0, 75.0, 20.0 ],
					"text" : "TRANSPOSE"
				}

			}
, 			{
				"box" : 				{
					"fontname" : "Arial",
					"fontsize" : 12.0,
					"id" : "obj-12",
					"maxclass" : "number",
					"numinlets" : 1,
					"numoutlets" : 2,
					"outlettype" : [ "int", "bang" ],
					"parameter_enable" : 0,
					"patching_rect" : [ 61.5, 60.0, 50.0, 20.0 ],
					"presentation" : 1,
					"presentation_rect" : [ 39.0, 127.0, 50.0, 20.0 ]
				}

			}
, 			{
				"box" : 				{
					"fontname" : "Arial",
					"fontsize" : 12.0,
					"id" : "obj-1",
					"maxclass" : "newobj",
					"numinlets" : 2,
					"numoutlets" : 1,
					"outlettype" : [ "int" ],
					"patching_rect" : [ 26.0, 84.0, 54.5, 20.0 ],
					"text" : "+ 0"
				}

			}
, 			{
				"box" : 				{
					"fontname" : "Gill Sans",
					"fontsize" : 12.0,
					"frgb" : 0.0,
					"id" : "obj-43",
					"maxclass" : "comment",
					"numinlets" : 1,
					"numoutlets" : 0,
					"patching_rect" : [ 90.5, 111.0, 67.0, 20.0 ],
					"text" : "tetrachords"
				}

			}
, 			{
				"box" : 				{
					"fontname" : "Gill Sans",
					"fontsize" : 12.0,
					"frgb" : 0.0,
					"id" : "obj-41",
					"maxclass" : "comment",
					"numinlets" : 1,
					"numoutlets" : 0,
					"patching_rect" : [ 73.571426, 141.0, 43.0, 20.0 ],
					"text" : "sorted"
				}

			}
, 			{
				"box" : 				{
					"fontname" : "Arial",
					"fontsize" : 12.0,
					"id" : "obj-4",
					"maxclass" : "newobj",
					"numinlets" : 2,
					"numoutlets" : 2,
					"outlettype" : [ "", "" ],
					"patching_rect" : [ 26.0, 141.0, 43.0, 20.0 ],
					"text" : "zl sort"
				}

			}
, 			{
				"box" : 				{
					"fontname" : "Arial",
					"fontsize" : 12.0,
					"id" : "obj-8",
					"maxclass" : "newobj",
					"numinlets" : 2,
					"numoutlets" : 2,
					"outlettype" : [ "", "" ],
					"patching_rect" : [ 26.0, 111.0, 63.0, 20.0 ],
					"text" : "zl group 4"
				}

			}
, 			{
				"box" : 				{
					"id" : "obj-6",
					"maxclass" : "bpatcher",
					"name" : "MIDI-player.maxpat",
					"numinlets" : 0,
					"numoutlets" : 3,
					"outlettype" : [ "int", "int", "int" ],
					"patching_rect" : [ 26.0, 19.0, 172.0, 36.0 ],
					"presentation" : 1,
					"presentation_rect" : [ 32.0, 91.0, 172.0, 36.0 ]
				}

			}
, 			{
				"box" : 				{
					"fontname" : "Arial",
					"fontsize" : 12.0,
					"id" : "obj-10",
					"maxclass" : "message",
					"numinlets" : 2,
					"numoutlets" : 1,
					"outlettype" : [ "" ],
					"patching_rect" : [ 64.071426, 528.5, 62.0, 18.0 ],
					"text" : "11. min"
				}

			}
, 			{
				"box" : 				{
					"fontname" : "Arial",
					"fontsize" : 12.0,
					"id" : "obj-2",
					"maxclass" : "message",
					"numinlets" : 2,
					"numoutlets" : 1,
					"outlettype" : [ "" ],
					"patching_rect" : [ 217.0, 127.5, 37.0, 18.0 ],
					"text" : "1 4 9"
				}

			}
, 			{
				"box" : 				{
					"fontname" : "Arial",
					"fontsize" : 12.0,
					"id" : "obj-3",
					"maxclass" : "newobj",
					"numinlets" : 1,
					"numoutlets" : 1,
					"outlettype" : [ "" ],
					"patching_rect" : [ 26.0, 205.0, 109.0, 20.0 ],
					"saved_object_attributes" : 					{
						"filename" : "chordidentifier.js",
						"parameter_enable" : 0
					}
,
					"text" : "js chordidentifier.js"
				}

			}
 ],
		"lines" : [ 			{
				"patchline" : 				{
					"destination" : [ "obj-8", 0 ],
					"disabled" : 0,
					"hidden" : 0,
					"source" : [ "obj-1", 0 ]
				}

			}
, 			{
				"patchline" : 				{
					"destination" : [ "obj-7", 0 ],
					"disabled" : 0,
					"hidden" : 0,
					"source" : [ "obj-11", 0 ]
				}

			}
, 			{
				"patchline" : 				{
					"destination" : [ "obj-1", 1 ],
					"disabled" : 0,
					"hidden" : 0,
					"source" : [ "obj-12", 0 ]
				}

			}
, 			{
				"patchline" : 				{
					"destination" : [ "obj-7", 0 ],
					"disabled" : 0,
					"hidden" : 0,
					"source" : [ "obj-13", 0 ]
				}

			}
, 			{
				"patchline" : 				{
					"destination" : [ "obj-7", 0 ],
					"disabled" : 0,
					"hidden" : 0,
					"source" : [ "obj-14", 0 ]
				}

			}
, 			{
				"patchline" : 				{
					"destination" : [ "obj-7", 0 ],
					"disabled" : 0,
					"hidden" : 0,
					"source" : [ "obj-15", 0 ]
				}

			}
, 			{
				"patchline" : 				{
					"destination" : [ "obj-28", 0 ],
					"disabled" : 0,
					"hidden" : 0,
					"source" : [ "obj-16", 0 ]
				}

			}
, 			{
				"patchline" : 				{
					"destination" : [ "obj-28", 0 ],
					"disabled" : 0,
					"hidden" : 0,
					"source" : [ "obj-2", 0 ]
				}

			}
, 			{
				"patchline" : 				{
					"destination" : [ "obj-23", 6 ],
					"disabled" : 0,
					"hidden" : 0,
					"source" : [ "obj-21", 3 ]
				}

			}
, 			{
				"patchline" : 				{
					"destination" : [ "obj-23", 4 ],
					"disabled" : 0,
					"hidden" : 0,
					"source" : [ "obj-21", 2 ]
				}

			}
, 			{
				"patchline" : 				{
					"destination" : [ "obj-23", 2 ],
					"disabled" : 0,
					"hidden" : 0,
					"source" : [ "obj-21", 1 ]
				}

			}
, 			{
				"patchline" : 				{
					"destination" : [ "obj-23", 0 ],
					"disabled" : 0,
					"hidden" : 0,
					"source" : [ "obj-21", 0 ]
				}

			}
, 			{
				"patchline" : 				{
					"destination" : [ "obj-20", 1 ],
					"disabled" : 0,
					"hidden" : 0,
					"source" : [ "obj-23", 0 ]
				}

			}
, 			{
				"patchline" : 				{
					"destination" : [ "obj-24", 0 ],
					"disabled" : 0,
					"hidden" : 0,
					"source" : [ "obj-23", 0 ]
				}

			}
, 			{
				"patchline" : 				{
					"destination" : [ "obj-22", 0 ],
					"disabled" : 0,
					"hidden" : 0,
					"source" : [ "obj-24", 0 ]
				}

			}
, 			{
				"patchline" : 				{
					"destination" : [ "obj-27", 0 ],
					"disabled" : 0,
					"hidden" : 0,
					"source" : [ "obj-26", 0 ]
				}

			}
, 			{
				"patchline" : 				{
					"destination" : [ "obj-21", 0 ],
					"disabled" : 0,
					"hidden" : 0,
					"source" : [ "obj-27", 0 ]
				}

			}
, 			{
				"patchline" : 				{
					"destination" : [ "obj-28", 0 ],
					"disabled" : 0,
					"hidden" : 0,
					"source" : [ "obj-27", 0 ]
				}

			}
, 			{
				"patchline" : 				{
					"destination" : [ "obj-3", 0 ],
					"disabled" : 0,
					"hidden" : 0,
					"source" : [ "obj-28", 0 ]
				}

			}
, 			{
				"patchline" : 				{
					"destination" : [ "obj-10", 1 ],
					"disabled" : 0,
					"hidden" : 0,
					"source" : [ "obj-3", 0 ]
				}

			}
, 			{
				"patchline" : 				{
					"destination" : [ "obj-28", 0 ],
					"disabled" : 0,
					"hidden" : 0,
					"source" : [ "obj-4", 0 ]
				}

			}
, 			{
				"patchline" : 				{
					"destination" : [ "obj-48", 0 ],
					"disabled" : 0,
					"hidden" : 0,
					"source" : [ "obj-4", 0 ]
				}

			}
, 			{
				"patchline" : 				{
					"destination" : [ "obj-53", 1 ],
					"disabled" : 0,
					"hidden" : 0,
					"source" : [ "obj-42", 1 ]
				}

			}
, 			{
				"patchline" : 				{
					"destination" : [ "obj-53", 0 ],
					"disabled" : 0,
					"hidden" : 0,
					"source" : [ "obj-42", 0 ]
				}

			}
, 			{
				"patchline" : 				{
					"destination" : [ "obj-45", 0 ],
					"disabled" : 0,
					"hidden" : 0,
					"source" : [ "obj-44", 0 ]
				}

			}
, 			{
				"patchline" : 				{
					"destination" : [ "obj-58", 1 ],
					"disabled" : 0,
					"hidden" : 0,
					"source" : [ "obj-44", 0 ]
				}

			}
, 			{
				"patchline" : 				{
					"destination" : [ "obj-42", 0 ],
					"disabled" : 0,
					"hidden" : 0,
					"source" : [ "obj-45", 0 ]
				}

			}
, 			{
				"patchline" : 				{
					"destination" : [ "obj-44", 6 ],
					"disabled" : 0,
					"hidden" : 0,
					"source" : [ "obj-48", 3 ]
				}

			}
, 			{
				"patchline" : 				{
					"destination" : [ "obj-44", 4 ],
					"disabled" : 0,
					"hidden" : 0,
					"source" : [ "obj-48", 2 ]
				}

			}
, 			{
				"patchline" : 				{
					"destination" : [ "obj-44", 2 ],
					"disabled" : 0,
					"hidden" : 0,
					"source" : [ "obj-48", 1 ]
				}

			}
, 			{
				"patchline" : 				{
					"destination" : [ "obj-44", 0 ],
					"disabled" : 0,
					"hidden" : 0,
					"source" : [ "obj-48", 0 ]
				}

			}
, 			{
				"patchline" : 				{
					"destination" : [ "obj-28", 0 ],
					"disabled" : 0,
					"hidden" : 0,
					"source" : [ "obj-5", 0 ]
				}

			}
, 			{
				"patchline" : 				{
					"destination" : [ "obj-52", 0 ],
					"disabled" : 0,
					"hidden" : 0,
					"source" : [ "obj-53", 0 ]
				}

			}
, 			{
				"patchline" : 				{
					"destination" : [ "obj-1", 0 ],
					"disabled" : 0,
					"hidden" : 0,
					"source" : [ "obj-6", 0 ]
				}

			}
, 			{
				"patchline" : 				{
					"destination" : [ "obj-3", 0 ],
					"disabled" : 0,
					"hidden" : 0,
					"source" : [ "obj-7", 0 ]
				}

			}
, 			{
				"patchline" : 				{
					"destination" : [ "obj-4", 0 ],
					"disabled" : 0,
					"hidden" : 0,
					"source" : [ "obj-8", 0 ]
				}

			}
, 			{
				"patchline" : 				{
					"destination" : [ "obj-7", 0 ],
					"disabled" : 0,
					"hidden" : 0,
					"source" : [ "obj-9", 0 ]
				}

			}
 ],
		"dependency_cache" : [ 			{
				"name" : "chordidentifier.js",
				"bootpath" : "/Volumes/RafaelValle/DESKTOP/MIR/MarkovChains",
				"patcherrelativepath" : ".",
				"type" : "TEXT",
				"implicit" : 1
			}
, 			{
				"name" : "MIDI-player.maxpat",
				"bootpath" : "/Volumes/RafaelValle/Eletronica/MAX/rafaelvalle",
				"patcherrelativepath" : "../../../Eletronica/MAX/rafaelvalle",
				"type" : "JSON",
				"implicit" : 1
			}
, 			{
				"name" : "Internal_Synthesizer.maxpat",
				"bootpath" : "/Volumes/RafaelValle/DESKTOP/Coding/CNMAT-MMJ-Depot-WORKED/applications/internal_synth",
				"patcherrelativepath" : "../../Coding/CNMAT-MMJ-Depot-WORKED/applications/internal_synth",
				"type" : "JSON",
				"implicit" : 1
			}
, 			{
				"name" : "pstore-simple-storage.maxpat",
				"bootpath" : "/Volumes/RafaelValle/DESKTOP/Coding/CNMAT-MMJ-Depot-WORKED/modules/Data_Storage/pstore-simple-storage",
				"patcherrelativepath" : "../../Coding/CNMAT-MMJ-Depot-WORKED/modules/Data_Storage/pstore-simple-storage",
				"type" : "JSON",
				"implicit" : 1
			}
, 			{
				"name" : "clavecin.maxpat",
				"bootpath" : "/Volumes/RafaelValle/DESKTOP/Coding/CNMAT-MMJ-Depot-WORKED/applications/internal_synth/lib",
				"patcherrelativepath" : "../../Coding/CNMAT-MMJ-Depot-WORKED/applications/internal_synth/lib",
				"type" : "JSON",
				"implicit" : 1
			}
, 			{
				"name" : "letter.maxpat",
				"bootpath" : "/Volumes/RafaelValle/DESKTOP/Coding/CNMAT-MMJ-Depot-WORKED/modules/Interface",
				"patcherrelativepath" : "../../Coding/CNMAT-MMJ-Depot-WORKED/modules/Interface",
				"type" : "JSON",
				"implicit" : 1
			}
, 			{
				"name" : "inst-to-pgm.txt",
				"bootpath" : "/Volumes/RafaelValle/DESKTOP/Coding/CNMAT-MMJ-Depot-WORKED/applications/internal_synth/lib",
				"patcherrelativepath" : "../../Coding/CNMAT-MMJ-Depot-WORKED/applications/internal_synth/lib",
				"type" : "TEXT",
				"implicit" : 1
			}
, 			{
				"name" : "nothing.maxpat",
				"bootpath" : "/Volumes/RafaelValle/DESKTOP/Coding/CNMAT-MMJ-Depot-WORKED/modules/basic-programming",
				"patcherrelativepath" : "../../Coding/CNMAT-MMJ-Depot-WORKED/modules/basic-programming",
				"type" : "JSON",
				"implicit" : 1
			}
, 			{
				"name" : "manage_notes.maxpat",
				"bootpath" : "/Volumes/RafaelValle/DESKTOP/Coding/CNMAT-MMJ-Depot-WORKED/applications/internal_synth/lib",
				"patcherrelativepath" : "../../Coding/CNMAT-MMJ-Depot-WORKED/applications/internal_synth/lib",
				"type" : "JSON",
				"implicit" : 1
			}
, 			{
				"name" : "cc-to-cc.maxpat",
				"bootpath" : "/Volumes/RafaelValle/DESKTOP/Coding/CNMAT-MMJ-Depot-WORKED/applications/internal_synth/lib",
				"patcherrelativepath" : "../../Coding/CNMAT-MMJ-Depot-WORKED/applications/internal_synth/lib",
				"type" : "JSON",
				"implicit" : 1
			}
, 			{
				"name" : "badge.maxpat",
				"bootpath" : "/Volumes/RafaelValle/DESKTOP/Coding/CNMAT-MMJ-Depot-WORKED/modules/Depot_Support",
				"patcherrelativepath" : "../../Coding/CNMAT-MMJ-Depot-WORKED/modules/Depot_Support",
				"type" : "JSON",
				"implicit" : 1
			}
, 			{
				"name" : "uc_license.maxpat",
				"bootpath" : "/Volumes/RafaelValle/DESKTOP/Coding/CNMAT-MMJ-Depot-WORKED/modules/Depot_Support",
				"patcherrelativepath" : "../../Coding/CNMAT-MMJ-Depot-WORKED/modules/Depot_Support",
				"type" : "JSON",
				"implicit" : 1
			}
, 			{
				"name" : "cnmat_blue.gif",
				"bootpath" : "/Volumes/RafaelValle/DESKTOP/Coding/CNMAT-MMJ-Depot-WORKED/modules/Depot_Support",
				"patcherrelativepath" : "../../Coding/CNMAT-MMJ-Depot-WORKED/modules/Depot_Support",
				"type" : "GIFf",
				"implicit" : 1
			}
, 			{
				"name" : "myNotes.js",
				"bootpath" : "/Volumes/RafaelValle/DESKTOP/Coding/CNMAT-MMJ-Depot-WORKED/modules/Depot_Support",
				"patcherrelativepath" : "../../Coding/CNMAT-MMJ-Depot-WORKED/modules/Depot_Support",
				"type" : "TEXT",
				"implicit" : 1
			}
, 			{
				"name" : "take_notes.maxpat",
				"bootpath" : "/Volumes/RafaelValle/DESKTOP/Coding/CNMAT-MMJ-Depot-WORKED/modules/Depot_Support",
				"patcherrelativepath" : "../../Coding/CNMAT-MMJ-Depot-WORKED/modules/Depot_Support",
				"type" : "JSON",
				"implicit" : 1
			}
, 			{
				"name" : "banner.maxpat",
				"bootpath" : "/Volumes/RafaelValle/DESKTOP/Coding/CNMAT-MMJ-Depot-WORKED/modules/Depot_Support",
				"patcherrelativepath" : "../../Coding/CNMAT-MMJ-Depot-WORKED/modules/Depot_Support",
				"type" : "JSON",
				"implicit" : 1
			}
, 			{
				"name" : "cnmat_wht-trans.png",
				"bootpath" : "/Volumes/RafaelValle/DESKTOP/Coding/CNMAT-MMJ-Depot-WORKED/modules/Depot_Support",
				"patcherrelativepath" : "../../Coding/CNMAT-MMJ-Depot-WORKED/modules/Depot_Support",
				"type" : "PNG ",
				"implicit" : 1
			}
, 			{
				"name" : "make-tune.maxpat",
				"bootpath" : "/Volumes/RafaelValle/DESKTOP/Coding/CNMAT-MMJ-Depot-WORKED/applications/internal_synth/lib",
				"patcherrelativepath" : "../../Coding/CNMAT-MMJ-Depot-WORKED/applications/internal_synth/lib",
				"type" : "JSON",
				"implicit" : 1
			}
, 			{
				"name" : "durations.mxt",
				"bootpath" : "/Volumes/RafaelValle/DESKTOP/Coding/CNMAT-MMJ-Depot-WORKED/repertoire/Michael_Zbyszynski/Daguerreotype",
				"patcherrelativepath" : "../../Coding/CNMAT-MMJ-Depot-WORKED/repertoire/Michael_Zbyszynski/Daguerreotype",
				"type" : "TEXT",
				"implicit" : 1
			}
, 			{
				"name" : "OSC-unroute.js",
				"bootpath" : "/Applications/Max 6.1/externals/CNMAT-Everything-OSX-MachO",
				"patcherrelativepath" : "../../../../../Applications/Max 6.1/externals/CNMAT-Everything-OSX-MachO",
				"type" : "TEXT",
				"implicit" : 1
			}
, 			{
				"name" : "notes-to-coll.maxpat",
				"bootpath" : "/Volumes/RafaelValle/DESKTOP/Coding/CNMAT-MMJ-Depot-WORKED/applications/internal_synth/lib",
				"patcherrelativepath" : "../../Coding/CNMAT-MMJ-Depot-WORKED/applications/internal_synth/lib",
				"type" : "JSON",
				"implicit" : 1
			}
, 			{
				"name" : "OSC-route.mxo",
				"type" : "iLaX"
			}
 ]
	}

}
