{
	"patcher" : 	{
		"fileversion" : 1,
		"appversion" : 		{
			"major" : 6,
			"minor" : 1,
			"revision" : 3,
			"architecture" : "x86"
		}
,
		"rect" : [ 22.0, 93.0, 545.0, 410.0 ],
		"bglocked" : 0,
		"openinpresentation" : 0,
		"default_fontsize" : 12.0,
		"default_fontface" : 0,
		"default_fontname" : "Arial",
		"gridonopen" : 0,
		"gridsize" : [ 12.0, 12.0 ],
		"gridsnaponopen" : 0,
		"statusbarvisible" : 2,
		"toolbarvisible" : 1,
		"boxanimatetime" : 200,
		"imprint" : 0,
		"enablehscroll" : 1,
		"enablevscroll" : 1,
		"devicewidth" : 0.0,
		"description" : "",
		"digest" : "",
		"tags" : "",
		"boxes" : [ 			{
				"box" : 				{
					"id" : "obj-24",
					"maxclass" : "button",
					"numinlets" : 1,
					"numoutlets" : 1,
					"outlettype" : [ "bang" ],
					"patching_rect" : [ 1.0, 84.0, 20.0, 20.0 ]
				}

			}
, 			{
				"box" : 				{
					"fontname" : "Arial",
					"fontsize" : 12.0,
					"id" : "obj-1",
					"maxclass" : "newobj",
					"numinlets" : 2,
					"numoutlets" : 1,
					"outlettype" : [ "bang" ],
					"patching_rect" : [ 22.0, 135.0, 50.0, 20.0 ],
					"text" : "del 100"
				}

			}
, 			{
				"box" : 				{
					"id" : "obj-22",
					"maxclass" : "button",
					"numinlets" : 1,
					"numoutlets" : 1,
					"outlettype" : [ "bang" ],
					"patching_rect" : [ 425.0, 288.0, 20.0, 20.0 ]
				}

			}
, 			{
				"box" : 				{
					"fontname" : "Arial",
					"fontsize" : 12.0,
					"id" : "obj-17",
					"maxclass" : "message",
					"numinlets" : 2,
					"numoutlets" : 1,
					"outlettype" : [ "" ],
					"patching_rect" : [ 460.0, 144.0, 71.0, 18.0 ],
					"text" : "67 75 1005"
				}

			}
, 			{
				"box" : 				{
					"fontname" : "Arial",
					"fontsize" : 12.0,
					"id" : "obj-9",
					"maxclass" : "message",
					"numinlets" : 2,
					"numoutlets" : 1,
					"outlettype" : [ "" ],
					"patching_rect" : [ 297.0, 288.0, 69.0, 18.0 ],
					"text" : "build_tree"
				}

			}
, 			{
				"box" : 				{
					"fontname" : "Arial",
					"fontsize" : 12.0,
					"id" : "obj-5",
					"maxclass" : "message",
					"numinlets" : 2,
					"numoutlets" : 1,
					"outlettype" : [ "" ],
					"patching_rect" : [ 373.0, 288.0, 47.0, 18.0 ],
					"text" : "seed 1"
				}

			}
, 			{
				"box" : 				{
					"fontname" : "Arial",
					"fontsize" : 12.0,
					"id" : "obj-8",
					"maxclass" : "number",
					"numinlets" : 1,
					"numoutlets" : 2,
					"outlettype" : [ "int", "bang" ],
					"parameter_enable" : 0,
					"patching_rect" : [ 234.0, 172.0, 50.0, 20.0 ]
				}

			}
, 			{
				"box" : 				{
					"fontname" : "Arial",
					"fontsize" : 12.0,
					"id" : "obj-4",
					"maxclass" : "newobj",
					"numinlets" : 2,
					"numoutlets" : 2,
					"outlettype" : [ "bang", "" ],
					"patching_rect" : [ 78.0, 105.0, 46.0, 20.0 ],
					"text" : "sel -1"
				}

			}
, 			{
				"box" : 				{
					"fontname" : "Arial",
					"fontsize" : 12.0,
					"id" : "obj-2",
					"maxclass" : "message",
					"numinlets" : 2,
					"numoutlets" : 1,
					"outlettype" : [ "" ],
					"patching_rect" : [ 142.0, 200.0, 94.0, 18.0 ],
					"text" : "40 -1 96 1365"
				}

			}
, 			{
				"box" : 				{
					"fontname" : "Arial",
					"fontsize" : 12.0,
					"id" : "obj-29",
					"maxclass" : "message",
					"numinlets" : 2,
					"numoutlets" : 1,
					"outlettype" : [ "" ],
					"patching_rect" : [ 228.0, 288.0, 69.0, 18.0 ],
					"text" : "get_onsets"
				}

			}
, 			{
				"box" : 				{
					"fontname" : "Arial",
					"fontsize" : 12.0,
					"id" : "obj-21",
					"maxclass" : "newobj",
					"numinlets" : 1,
					"numoutlets" : 3,
					"outlettype" : [ "", "", "" ],
					"patching_rect" : [ 315.0, 144.0, 142.0, 20.0 ],
					"text" : "osc-route /distance /note"
				}

			}
, 			{
				"box" : 				{
					"fontname" : "Arial",
					"fontsize" : 12.0,
					"id" : "obj-19",
					"maxclass" : "newobj",
					"numinlets" : 1,
					"numoutlets" : 2,
					"outlettype" : [ "", "" ],
					"patching_rect" : [ 315.0, 114.0, 100.0, 20.0 ],
					"text" : "osc-route /event"
				}

			}
, 			{
				"box" : 				{
					"fontname" : "Arial",
					"fontsize" : 12.0,
					"id" : "obj-18",
					"maxclass" : "number",
					"numinlets" : 1,
					"numoutlets" : 2,
					"outlettype" : [ "int", "bang" ],
					"parameter_enable" : 0,
					"patching_rect" : [ 142.0, 228.0, 50.0, 20.0 ]
				}

			}
, 			{
				"box" : 				{
					"fontname" : "Arial",
					"fontsize" : 13.0,
					"id" : "obj-11",
					"maxclass" : "newobj",
					"numinlets" : 3,
					"numoutlets" : 2,
					"outlettype" : [ "float", "float" ],
					"patching_rect" : [ 315.0, 198.0, 117.5, 21.0 ],
					"text" : "makenote 127 200"
				}

			}
, 			{
				"box" : 				{
					"fontname" : "Arial",
					"fontsize" : 13.0,
					"id" : "obj-16",
					"maxclass" : "newobj",
					"numinlets" : 3,
					"numoutlets" : 0,
					"patching_rect" : [ 315.0, 228.5, 216.0, 21.0 ],
					"text" : "noteout 1"
				}

			}
, 			{
				"box" : 				{
					"fontname" : "Arial",
					"fontsize" : 12.0,
					"id" : "obj-7",
					"maxclass" : "newobj",
					"numinlets" : 1,
					"numoutlets" : 1,
					"outlettype" : [ "" ],
					"patching_rect" : [ 142.0, 257.0, 111.0, 20.0 ],
					"text" : "prepend get_event"
				}

			}
, 			{
				"box" : 				{
					"fontname" : "Arial",
					"fontsize" : 12.0,
					"id" : "obj-12",
					"maxclass" : "newobj",
					"numinlets" : 1,
					"numoutlets" : 0,
					"patching_rect" : [ 425.0, 9.0, 100.0, 20.0 ],
					"text" : "print midiparser"
				}

			}
, 			{
				"box" : 				{
					"fontname" : "Arial",
					"fontsize" : 12.0,
					"id" : "obj-6",
					"maxclass" : "newobj",
					"numinlets" : 0,
					"numoutlets" : 1,
					"outlettype" : [ "" ],
					"patching_rect" : [ 315.0, 9.0, 100.0, 20.0 ],
					"text" : "r midiparser"
				}

			}
, 			{
				"box" : 				{
					"fontname" : "Arial",
					"fontsize" : 12.0,
					"id" : "obj-62",
					"maxclass" : "message",
					"numinlets" : 2,
					"numoutlets" : 1,
					"outlettype" : [ "" ],
					"patching_rect" : [ 228.714294, 42.0, 50.0, 18.0 ],
					"presentation" : 1,
					"presentation_rect" : [ 151.0, 94.0, 37.0, 18.0 ],
					"text" : "clear"
				}

			}
, 			{
				"box" : 				{
					"fontname" : "Arial",
					"fontsize" : 12.0,
					"id" : "obj-3",
					"maxclass" : "number",
					"numinlets" : 1,
					"numoutlets" : 2,
					"outlettype" : [ "int", "bang" ],
					"parameter_enable" : 0,
					"patching_rect" : [ 132.0, 138.0, 50.0, 20.0 ]
				}

			}
, 			{
				"box" : 				{
					"fontname" : "Arial",
					"fontsize" : 12.0,
					"id" : "obj-58",
					"maxclass" : "newobj",
					"numinlets" : 4,
					"numoutlets" : 1,
					"outlettype" : [ "" ],
					"patching_rect" : [ 78.0, 163.0, 100.0, 20.0 ],
					"text" : "pack 0 0 0 0"
				}

			}
, 			{
				"box" : 				{
					"fontname" : "Arial",
					"fontsize" : 12.0,
					"id" : "obj-71",
					"maxclass" : "number",
					"numinlets" : 1,
					"numoutlets" : 2,
					"outlettype" : [ "int", "bang" ],
					"parameter_enable" : 0,
					"patching_rect" : [ 159.0, 105.0, 50.0, 20.0 ]
				}

			}
, 			{
				"box" : 				{
					"fontname" : "Arial",
					"fontsize" : 12.0,
					"id" : "obj-74",
					"maxclass" : "message",
					"numinlets" : 2,
					"numoutlets" : 1,
					"outlettype" : [ "" ],
					"patching_rect" : [ 184.0, 42.0, 50.0, 18.0 ],
					"presentation" : 1,
					"presentation_rect" : [ 115.0, 94.0, 34.0, 18.0 ],
					"text" : "start"
				}

			}
, 			{
				"box" : 				{
					"fontname" : "Arial",
					"fontsize" : 12.0,
					"id" : "obj-80",
					"maxclass" : "message",
					"numinlets" : 2,
					"numoutlets" : 1,
					"outlettype" : [ "" ],
					"patching_rect" : [ 26.5, 42.0, 50.0, 18.0 ],
					"text" : "next"
				}

			}
, 			{
				"box" : 				{
					"fontname" : "Arial",
					"fontsize" : 12.0,
					"id" : "obj-84",
					"maxclass" : "message",
					"numinlets" : 2,
					"numoutlets" : 1,
					"outlettype" : [ "" ],
					"patching_rect" : [ 134.0, 42.0, 50.0, 18.0 ],
					"presentation" : 1,
					"presentation_rect" : [ 77.0, 94.0, 35.0, 18.0 ],
					"text" : "read"
				}

			}
, 			{
				"box" : 				{
					"fontname" : "Arial",
					"fontsize" : 12.0,
					"id" : "obj-86",
					"maxclass" : "message",
					"numinlets" : 2,
					"numoutlets" : 1,
					"outlettype" : [ "" ],
					"patching_rect" : [ 78.0, 42.0, 50.0, 18.0 ],
					"presentation" : 1,
					"presentation_rect" : [ 38.0, 94.0, 37.0, 18.0 ],
					"text" : "open"
				}

			}
, 			{
				"box" : 				{
					"fontname" : "Arial",
					"fontsize" : 12.0,
					"id" : "obj-90",
					"maxclass" : "newobj",
					"numinlets" : 8,
					"numoutlets" : 8,
					"outlettype" : [ "int", "int", "int", "int", "int", "int", "int", "int" ],
					"patching_rect" : [ 78.0, 74.0, 208.0, 20.0 ],
					"presentation" : 1,
					"presentation_rect" : [ 38.0, 113.0, 100.0, 20.0 ],
					"save" : [ "#N", "detonate", "u836001755", ";", "#X", "setparam", 0, "Time", 0, 0, 999999, 0, 1000, 200, 0, ";", "#X", "setparam", 1, "Pitch", 0, 0, 127, 60, 12, 4, 0, ";", "#X", "setparam", 2, "Vel", 0, 0, 127, 64, 12, 4, 0, ";", "#X", "setparam", 3, "Dur", 0, 1, 99999, 200, 800, 200, 0, ";", "#X", "setparam", 4, "Chan", 0, 1, 16, 1, 8, 1, 0, ";", "#X", "setparam", 5, "Track", 0, 1, 32, 1, 8, 1, 0, ";", "#X", "setparam", 6, "X1", 0, 0, 999, 0, 80, 20, 0, ";", "#X", "setparam", 7, "X2", 0, 0, 999, 0, 80, 20, 0, ";", "#X", "restore", ";", "#X", 2046, 71, 96, 682, 1, 2, 0, 0, ";", "#X", 0, 67, 96, 682, 2, 3, 0, 0, ";", "#X", 0, 64, 96, 341, 3, 4, 0, 0, ";", "#X", 0, 52, 96, 682, 4, 5, 0, 0, ";", "#X", 341, 62, 96, 341, 3, 4, 0, 0, ";", "#X", 341, 70, 96, 683, 1, 2, 0, 0, ";", "#X", 0, 66, 96, 683, 2, 3, 0, 0, ";", "#X", 0, 61, 96, 683, 3, 4, 0, 0, ";", "#X", 0, 54, 96, 341, 4, 5, 0, 0, ";", "#X", 341, 52, 96, 342, 4, 5, 0, 0, ";", "#X", 342, 71, 96, 341, 1, 2, 0, 0, ";", "#X", 0, 66, 96, 682, 2, 3, 0, 0, ";", "#X", 0, 62, 96, 341, 3, 4, 0, 0, ";", "#X", 0, 50, 96, 341, 4, 5, 0, 0, ";", "#X", 341, 73, 96, 341, 1, 2, 0, 0, ";", "#X", 0, 58, 96, 341, 3, 4, 0, 0, ";", "#X", 0, 49, 96, 341, 4, 5, 0, 0, ";", "#X", 341, 74, 96, 682, 1, 2, 0, 0, ";", "#X", 0, 66, 96, 682, 2, 3, 0, 0, ";", "#X", 0, 59, 96, 682, 3, 4, 0, 0, ";", "#X", 0, 47, 96, 682, 4, 5, 0, 0, ";", "#X", 682, 76, 96, 682, 1, 2, 0, 0, ";", "#X", 0, 66, 96, 682, 2, 3, 0, 0, ";", "#X", 0, 61, 96, 682, 3, 4, 0, 0, ";", "#X", 0, 46, 96, 682, 4, 5, 0, 0, ";", "#X", 682, 74, 96, 682, 1, 2, 0, 0, ";", "#X", 0, 66, 96, 682, 2, 3, 0, 0, ";", "#X", 0, 59, 96, 682, 3, 4, 0, 0, ";", "#X", 0, 47, 96, 682, 4, 5, 0, 0, ";", "#X", 682, 73, 96, 683, 1, 2, 0, 0, ";", "#X", 0, 66, 96, 342, 2, 3, 0, 0, ";", "#X", 0, 58, 96, 683, 3, 4, 0, 0, ";", "#X", 0, 42, 96, 683, 4, 5, 0, 0, ";", "#X", 342, 64, 96, 341, 2, 3, 0, 0, ";", "#X", 341, 71, 96, 682, 1, 2, 0, 0, ";", "#X", 0, 63, 96, 682, 2, 3, 0, 0, ";", "#X", 0, 54, 96, 682, 3, 4, 0, 0, ";", "#X", 0, 47, 96, 682, 4, 5, 0, 0, ";", "#X", 682, 71, 96, 682, 1, 2, 0, 0, ";", "#X", 0, 66, 96, 682, 2, 3, 0, 0, ";", "#X", 0, 59, 96, 682, 3, 4, 0, 0, ";", "#X", 0, 51, 96, 682, 4, 5, 0, 0, ";", "#X", 682, 67, 96, 682, 1, 2, 0, 0, ";", "#X", 0, 64, 96, 682, 2, 3, 0, 0, ";", "#X", 0, 59, 96, 341, 3, 4, 0, 0, ";", "#X", 0, 52, 96, 682, 4, 5, 0, 0, ";", "#X", 341, 60, 96, 341, 3, 4, 0, 0, ";", "#X", 341, 69, 96, 682, 1, 2, 0, 0, ";", "#X", 0, 62, 96, 682, 2, 3, 0, 0, ";", "#X", 0, 59, 96, 341, 3, 4, 0, 0, ";", "#X", 0, 54, 96, 682, 4, 5, 0, 0, ";", "#X", 341, 57, 96, 341, 3, 4, 0, 0, ";", "#X", 341, 71, 96, 683, 1, 2, 0, 0, ";", "#X", 0, 62, 96, 342, 2, 3, 0, 0, ";", "#X", 0, 55, 96, 342, 3, 4, 0, 0, ";", "#X", 0, 55, 96, 342, 4, 5, 0, 0, ";", "#X", 342, 63, 96, 341, 2, 3, 0, 0, ";", "#X", 0, 57, 96, 341, 3, 4, 0, 0, ";", "#X", 0, 54, 96, 341, 4, 5, 0, 0, ";", "#X", 341, 69, 96, 341, 1, 2, 0, 0, ";", "#X", 0, 64, 96, 1364, 2, 3, 0, 0, ";", "#X", 0, 59, 96, 682, 3, 4, 0, 0, ";", "#X", 0, 52, 96, 682, 4, 5, 0, 0, ";", "#X", 341, 67, 96, 341, 1, 2, 0, 0, ";", "#X", 341, 66, 96, 341, 1, 2, 0, 0, ";", "#X", 0, 60, 96, 682, 3, 4, 0, 0, ";", "#X", 0, 45, 96, 341, 4, 5, 0, 0, ";", "#X", 341, 64, 96, 341, 1, 2, 0, 0, ";", "#X", 0, 47, 96, 171, 4, 5, 0, 0, ";", "#X", 171, 48, 96, 170, 4, 5, 0, 0, ";", "#X", 170, 66, 96, 682, 1, 2, 0, 0, ";", "#X", 0, 63, 96, 682, 2, 3, 0, 0, ";", "#X", 0, 54, 96, 341, 3, 4, 0, 0, ";", "#X", 0, 47, 96, 682, 4, 5, 0, 0, ";", "#X", 341, 57, 96, 341, 3, 4, 0, 0, ";", "#X", 341, 64, 96, 683, 1, 2, 0, 0, ";", "#X", 0, 59, 96, 683, 2, 3, 0, 0, ";", "#X", 0, 55, 96, 683, 3, 4, 0, 0, ";", "#X", 0, 40, 96, 683, 4, 5, 0, 0, ";", "#X", 683, 71, 96, 682, 1, 2, 0, 0, ";", "#X", 0, 67, 96, 682, 2, 3, 0, 0, ";", "#X", 0, 64, 96, 341, 3, 4, 0, 0, ";", "#X", 0, 52, 96, 682, 4, 5, 0, 0, ";", "#X", 341, 62, 96, 341, 3, 4, 0, 0, ";", "#X", 341, 70, 96, 682, 1, 2, 0, 0, ";", "#X", 0, 66, 96, 682, 2, 3, 0, 0, ";", "#X", 0, 61, 96, 682, 3, 4, 0, 0, ";", "#X", 0, 54, 96, 341, 4, 5, 0, 0, ";", "#X", 341, 52, 96, 341, 4, 5, 0, 0, ";", "#X", 341, 71, 96, 341, 1, 2, 0, 0, ";", "#X", 0, 66, 96, 682, 2, 3, 0, 0, ";", "#X", 0, 62, 96, 341, 3, 4, 0, 0, ";", "#X", 0, 50, 96, 341, 4, 5, 0, 0, ";", "#X", 341, 73, 96, 341, 1, 2, 0, 0, ";", "#X", 0, 58, 96, 341, 3, 4, 0, 0, ";", "#X", 0, 49, 96, 341, 4, 5, 0, 0, ";", "#X", 341, 74, 96, 682, 1, 2, 0, 0, ";", "#X", 0, 66, 96, 682, 2, 3, 0, 0, ";", "#X", 0, 59, 96, 682, 3, 4, 0, 0, ";", "#X", 0, 47, 96, 682, 4, 5, 0, 0, ";", "#X", 682, 76, 96, 683, 1, 2, 0, 0, ";", "#X", 0, 66, 96, 683, 2, 3, 0, 0, ";", "#X", 0, 61, 96, 683, 3, 4, 0, 0, ";", "#X", 0, 46, 96, 683, 4, 5, 0, 0, ";", "#X", 683, 74, 96, 682, 1, 2, 0, 0, ";", "#X", 0, 66, 96, 682, 2, 3, 0, 0, ";", "#X", 0, 59, 96, 682, 3, 4, 0, 0, ";", "#X", 0, 47, 96, 682, 4, 5, 0, 0, ";", "#X", 682, 73, 96, 682, 1, 2, 0, 0, ";", "#X", 0, 66, 96, 341, 2, 3, 0, 0, ";", "#X", 0, 58, 96, 682, 3, 4, 0, 0, ";", "#X", 0, 42, 96, 682, 4, 5, 0, 0, ";", "#X", 341, 64, 96, 341, 2, 3, 0, 0, ";", "#X", 341, 71, 96, 682, 1, 2, 0, 0, ";", "#X", 0, 63, 96, 682, 2, 3, 0, 0, ";", "#X", 0, 54, 96, 682, 3, 4, 0, 0, ";", "#X", 0, 47, 96, 682, 4, 5, 0, 0, ";", "#X", 682, 71, 96, 682, 1, 2, 0, 0, ";", "#X", 0, 66, 96, 682, 2, 3, 0, 0, ";", "#X", 0, 59, 96, 682, 3, 4, 0, 0, ";", "#X", 0, 51, 96, 682, 4, 5, 0, 0, ";", "#X", 682, 67, 96, 683, 1, 2, 0, 0, ";", "#X", 0, 64, 96, 683, 2, 3, 0, 0, ";", "#X", 0, 59, 96, 342, 3, 4, 0, 0, ";", "#X", 0, 52, 96, 683, 4, 5, 0, 0, ";", "#X", 342, 60, 96, 341, 3, 4, 0, 0, ";", "#X", 341, 69, 96, 682, 1, 2, 0, 0, ";", "#X", 0, 62, 96, 682, 2, 3, 0, 0, ";", "#X", 0, 59, 96, 341, 3, 4, 0, 0, ";", "#X", 0, 54, 96, 682, 4, 5, 0, 0, ";", "#X", 341, 57, 96, 341, 3, 4, 0, 0, ";", "#X", 341, 71, 96, 682, 1, 2, 0, 0, ";", "#X", 0, 62, 96, 341, 2, 3, 0, 0, ";", "#X", 0, 55, 96, 341, 3, 4, 0, 0, ";", "#X", 0, 55, 96, 341, 4, 5, 0, 0, ";", "#X", 341, 63, 96, 341, 2, 3, 0, 0, ";", "#X", 0, 57, 96, 341, 3, 4, 0, 0, ";", "#X", 0, 54, 96, 341, 4, 5, 0, 0, ";", "#X", 341, 69, 96, 341, 1, 2, 0, 0, ";", "#X", 0, 64, 96, 1364, 2, 3, 0, 0, ";", "#X", 0, 59, 96, 682, 3, 4, 0, 0, ";", "#X", 0, 52, 96, 682, 4, 5, 0, 0, ";", "#X", 341, 67, 96, 341, 1, 2, 0, 0, ";", "#X", 341, 66, 96, 341, 1, 2, 0, 0, ";", "#X", 0, 60, 96, 682, 3, 4, 0, 0, ";", "#X", 0, 45, 96, 341, 4, 5, 0, 0, ";", "#X", 341, 64, 96, 341, 1, 2, 0, 0, ";", "#X", 0, 47, 96, 171, 4, 5, 0, 0, ";", "#X", 171, 48, 96, 170, 4, 5, 0, 0, ";", "#X", 170, 66, 96, 683, 1, 2, 0, 0, ";", "#X", 0, 63, 96, 683, 2, 3, 0, 0, ";", "#X", 0, 54, 96, 342, 3, 4, 0, 0, ";", "#X", 0, 47, 96, 683, 4, 5, 0, 0, ";", "#X", 342, 57, 96, 341, 3, 4, 0, 0, ";", "#X", 341, 64, 96, 682, 1, 2, 0, 0, ";", "#X", 0, 59, 96, 682, 2, 3, 0, 0, ";", "#X", 0, 55, 96, 682, 3, 4, 0, 0, ";", "#X", 0, 40, 96, 682, 4, 5, 0, 0, ";", "#X", 1364, 64, 96, 341, 1, 2, 0, 0, ";", "#X", 0, 59, 96, 682, 2, 3, 0, 0, ";", "#X", 0, 55, 96, 341, 3, 4, 0, 0, ";", "#X", 0, 52, 96, 1023, 4, 5, 0, 0, ";", "#X", 341, 66, 96, 341, 1, 2, 0, 0, ";", "#X", 0, 57, 96, 341, 3, 4, 0, 0, ";", "#X", 341, 67, 96, 683, 1, 2, 0, 0, ";", "#X", 0, 64, 96, 683, 2, 3, 0, 0, ";", "#X", 0, 59, 96, 683, 3, 4, 0, 0, ";", "#X", 341, 50, 96, 342, 4, 5, 0, 0, ";", "#X", 342, 69, 96, 682, 1, 2, 0, 0, ";", "#X", 0, 64, 96, 1023, 2, 3, 0, 0, ";", "#X", 0, 57, 96, 341, 3, 4, 0, 0, ";", "#X", 0, 48, 96, 341, 4, 5, 0, 0, ";", "#X", 341, 59, 96, 341, 3, 4, 0, 0, ";", "#X", 0, 47, 96, 341, 4, 5, 0, 0, ";", "#X", 341, 64, 96, 341, 1, 2, 0, 0, ";", "#X", 0, 60, 96, 682, 3, 4, 0, 0, ";", "#X", 0, 45, 96, 682, 4, 5, 0, 0, ";", "#X", 341, 66, 96, 341, 1, 2, 0, 0, ";", "#X", 0, 63, 96, 341, 2, 3, 0, 0, ";", "#X", 341, 67, 96, 682, 1, 2, 0, 0, ";", "#X", 0, 64, 96, 682, 2, 3, 0, 0, ";", "#X", 0, 59, 96, 682, 3, 4, 0, 0, ";", "#X", 0, 52, 96, 682, 4, 5, 0, 0, ";", "#X", 682, 69, 96, 682, 1, 2, 0, 0, ";", "#X", 0, 62, 96, 682, 2, 3, 0, 0, ";", "#X", 0, 57, 96, 682, 3, 4, 0, 0, ";", "#X", 0, 54, 96, 682, 4, 5, 0, 0, ";", "#X", 682, 71, 96, 683, 1, 2, 0, 0, ";", "#X", 0, 62, 96, 683, 2, 3, 0, 0, ";", "#X", 0, 55, 96, 683, 3, 4, 0, 0, ";", "#X", 0, 55, 96, 683, 4, 5, 0, 0, ";", "#X", 683, 71, 96, 682, 1, 2, 0, 0, ";", "#X", 0, 67, 96, 341, 2, 3, 0, 0, ";", "#X", 0, 62, 96, 682, 3, 4, 0, 0, ";", "#X", 0, 55, 96, 341, 4, 5, 0, 0, ";", "#X", 341, 69, 96, 341, 2, 3, 0, 0, ";", "#X", 0, 54, 96, 341, 4, 5, 0, 0, ";", "#X", 341, 76, 96, 682, 1, 2, 0, 0, ";", "#X", 0, 71, 96, 682, 2, 3, 0, 0, ";", "#X", 0, 67, 96, 682, 3, 4, 0, 0, ";", "#X", 0, 52, 96, 682, 4, 5, 0, 0, ";", "#X", 682, 75, 96, 682, 1, 2, 0, 0, ";", "#X", 0, 69, 96, 682, 2, 3, 0, 0, ";", "#X", 0, 66, 96, 682, 3, 4, 0, 0, ";", "#X", 0, 54, 96, 682, 4, 5, 0, 0, ";", "#X", 682, 76, 96, 682, 1, 2, 0, 0, ";", "#X", 0, 71, 96, 682, 2, 3, 0, 0, ";", "#X", 0, 64, 96, 341, 3, 4, 0, 0, ";", "#X", 0, 56, 96, 682, 4, 5, 0, 0, ";", "#X", 341, 62, 96, 341, 3, 4, 0, 0, ";", "#X", 341, 78, 96, 342, 1, 2, 0, 0, ";", "#X", 0, 66, 96, 683, 2, 3, 0, 0, ";", "#X", 0, 61, 96, 683, 3, 4, 0, 0, ";", "#X", 0, 58, 96, 683, 4, 5, 0, 0, ";", "#X", 342, 76, 96, 341, 1, 2, 0, 0, ";", "#X", 341, 74, 96, 682, 1, 2, 0, 0, ";", "#X", 0, 66, 96, 682, 2, 3, 0, 0, ";", "#X", 0, 59, 96, 682, 3, 4, 0, 0, ";", "#X", 0, 59, 96, 682, 4, 5, 0, 0, ";", "#X", 682, 73, 96, 682, 1, 2, 0, 0, ";", "#X", 0, 66, 96, 341, 2, 3, 0, 0, ";", "#X", 0, 58, 96, 682, 3, 4, 0, 0, ";", "#X", 0, 54, 96, 682, 4, 5, 0, 0, ";", "#X", 341, 64, 96, 341, 2, 3, 0, 0, ";", "#X", 341, 71, 96, 682, 1, 2, 0, 0, ";", "#X", 0, 62, 96, 682, 2, 3, 0, 0, ";", "#X", 0, 54, 96, 682, 3, 4, 0, 0, ";", "#X", 0, 47, 96, 682, 4, 5, 0, 0, ";", "#X", 682, 73, 96, 683, 1, 2, 0, 0, ";", "#X", 0, 64, 96, 683, 2, 3, 0, 0, ";", "#X", 0, 55, 96, 683, 3, 4, 0, 0, ";", "#X", 0, 52, 96, 683, 4, 5, 0, 0, ";", "#X", 683, 74, 96, 682, 1, 2, 0, 0, ";", "#X", 0, 66, 96, 682, 2, 3, 0, 0, ";", "#X", 0, 57, 96, 682, 3, 4, 0, 0, ";", "#X", 0, 50, 96, 682, 4, 5, 0, 0, ";", "#X", 682, 71, 96, 341, 1, 2, 0, 0, ";", "#X", 0, 62, 96, 682, 2, 3, 0, 0, ";", "#X", 0, 55, 96, 682, 3, 4, 0, 0, ";", "#X", 0, 55, 96, 682, 4, 5, 0, 0, ";", "#X", 341, 73, 96, 341, 1, 2, 0, 0, ";", "#X", 341, 74, 96, 682, 1, 2, 0, 0, ";", "#X", 0, 67, 96, 682, 2, 3, 0, 0, ";", "#X", 0, 55, 96, 682, 3, 4, 0, 0, ";", "#X", 0, 47, 96, 341, 4, 5, 0, 0, ";", "#X", 341, 48, 96, 341, 4, 5, 0, 0, ";", "#X", 341, 69, 96, 682, 1, 2, 0, 0, ";", "#X", 0, 66, 96, 682, 2, 3, 0, 0, ";", "#X", 0, 62, 96, 341, 3, 4, 0, 0, ";", "#X", 0, 50, 96, 682, 4, 5, 0, 0, ";", "#X", 341, 60, 96, 341, 3, 4, 0, 0, ";", "#X", 341, 67, 96, 683, 1, 2, 0, 0, ";", "#X", 0, 66, 96, 341, 2, 3, 0, 0, ";", "#X", 0, 59, 96, 683, 3, 4, 0, 0, ";", "#X", 0, 52, 96, 683, 4, 5, 0, 0, ";", "#X", 341, 64, 96, 342, 2, 3, 0, 0, ";", "#X", 342, 66, 96, 682, 1, 2, 0, 0, ";", "#X", 0, 64, 96, 341, 2, 3, 0, 0, ";", "#X", 0, 57, 96, 682, 3, 4, 0, 0, ";", "#X", 0, 47, 96, 682, 4, 5, 0, 0, ";", "#X", 341, 63, 96, 341, 2, 3, 0, 0, ";", "#X", 341, 64, 96, 1364, 1, 2, 0, 0, ";", "#X", 0, 64, 96, 1364, 2, 3, 0, 0, ";", "#X", 0, 55, 96, 1364, 3, 4, 0, 0, ";", "#X", 0, 48, 96, 1364, 4, 5, 0, 0, ";", "#X", 1364, 71, 96, 682, 1, 2, 0, 0, ";", "#X", 0, 62, 96, 341, 2, 3, 0, 0, ";", "#X", 0, 55, 96, 682, 3, 4, 0, 0, ";", "#X", 0, 55, 96, 682, 4, 5, 0, 0, ";", "#X", 341, 64, 96, 341, 2, 3, 0, 0, ";", "#X", 341, 69, 96, 683, 1, 2, 0, 0, ";", "#X", 0, 66, 96, 1024, 2, 3, 0, 0, ";", "#X", 0, 54, 96, 342, 3, 4, 0, 0, ";", "#X", 0, 51, 96, 683, 4, 5, 0, 0, ";", "#X", 342, 59, 96, 341, 3, 4, 0, 0, ";", "#X", 341, 67, 96, 1364, 1, 2, 0, 0, ";", "#X", 0, 59, 96, 682, 3, 4, 0, 0, ";", "#X", 0, 52, 96, 682, 4, 5, 0, 0, ";", "#X", 341, 63, 96, 341, 2, 3, 0, 0, ";", "#X", 341, 64, 96, 1364, 2, 3, 0, 0, ";", "#X", 0, 60, 96, 1364, 3, 4, 0, 0, ";", "#X", 0, 48, 96, 682, 4, 5, 0, 0, ";", "#X", 682, 66, 96, 1364, 1, 2, 0, 0, ";", "#X", 0, 45, 96, 682, 4, 5, 0, 0, ";", "#X", 682, 63, 96, 682, 2, 3, 0, 0, ";", "#X", 0, 59, 96, 341, 3, 4, 0, 0, ";", "#X", 0, 47, 96, 682, 4, 5, 0, 0, ";", "#X", 341, 57, 96, 341, 3, 4, 0, 0, ";", "#X", 341, 64, 96, 1365, 1, 2, 0, 0, ";", "#X", 0, 59, 96, 1365, 2, 3, 0, 0, ";", "#X", 0, 56, 96, 1365, 3, 4, 0, 0, ";", "#X", 0, 40, 96, 1365, 4, 5, 0, 0, ";", "#X", "stop", ";" ],
					"text" : "detonate"
				}

			}
, 			{
				"box" : 				{
					"fontname" : "Gill Sans",
					"fontsize" : 12.0,
					"frgb" : 0.0,
					"id" : "obj-87",
					"maxclass" : "comment",
					"numinlets" : 1,
					"numoutlets" : 0,
					"patching_rect" : [ 28.0, 23.0, 113.0, 20.0 ],
					"presentation" : 1,
					"presentation_rect" : [ 38.0, 74.0, 113.0, 20.0 ],
					"text" : "LEARNING ENGINE"
				}

			}
, 			{
				"box" : 				{
					"fontname" : "Arial",
					"fontsize" : 12.0,
					"id" : "obj-20",
					"maxclass" : "message",
					"numinlets" : 2,
					"numoutlets" : 1,
					"outlettype" : [ "" ],
					"patching_rect" : [ 32.0, 332.5, 103.0, 18.0 ],
					"text" : "reload midiparser"
				}

			}
, 			{
				"box" : 				{
					"fontname" : "Arial",
					"fontsize" : 12.0,
					"id" : "obj-13",
					"maxclass" : "newobj",
					"numinlets" : 1,
					"numoutlets" : 1,
					"outlettype" : [ "" ],
					"patching_rect" : [ 78.0, 287.0, 143.0, 20.0 ],
					"text" : "prepend add_midi_event"
				}

			}
, 			{
				"box" : 				{
					"id" : "obj-15",
					"maxclass" : "button",
					"numinlets" : 1,
					"numoutlets" : 1,
					"outlettype" : [ "bang" ],
					"patching_rect" : [ 172.0, 362.0, 20.0, 20.0 ]
				}

			}
, 			{
				"box" : 				{
					"fontname" : "Arial",
					"fontsize" : 12.0,
					"id" : "obj-10",
					"maxclass" : "newobj",
					"numinlets" : 2,
					"numoutlets" : 2,
					"outlettype" : [ "", "" ],
					"patching_rect" : [ 32.0, 362.0, 125.5, 20.0 ],
					"text" : "py seeder-engine"
				}

			}
 ],
		"lines" : [ 			{
				"patchline" : 				{
					"destination" : [ "obj-24", 0 ],
					"disabled" : 0,
					"hidden" : 0,
					"source" : [ "obj-1", 0 ]
				}

			}
, 			{
				"patchline" : 				{
					"destination" : [ "obj-16", 1 ],
					"disabled" : 0,
					"hidden" : 0,
					"source" : [ "obj-11", 1 ]
				}

			}
, 			{
				"patchline" : 				{
					"destination" : [ "obj-16", 0 ],
					"disabled" : 0,
					"hidden" : 0,
					"source" : [ "obj-11", 0 ]
				}

			}
, 			{
				"patchline" : 				{
					"destination" : [ "obj-10", 1 ],
					"disabled" : 0,
					"hidden" : 0,
					"source" : [ "obj-13", 0 ]
				}

			}
, 			{
				"patchline" : 				{
					"destination" : [ "obj-10", 1 ],
					"disabled" : 0,
					"hidden" : 0,
					"source" : [ "obj-15", 0 ]
				}

			}
, 			{
				"patchline" : 				{
					"destination" : [ "obj-11", 0 ],
					"disabled" : 0,
					"hidden" : 0,
					"source" : [ "obj-17", 0 ]
				}

			}
, 			{
				"patchline" : 				{
					"destination" : [ "obj-7", 0 ],
					"disabled" : 0,
					"hidden" : 0,
					"source" : [ "obj-18", 0 ]
				}

			}
, 			{
				"patchline" : 				{
					"destination" : [ "obj-21", 0 ],
					"disabled" : 0,
					"hidden" : 0,
					"source" : [ "obj-19", 0 ]
				}

			}
, 			{
				"patchline" : 				{
					"destination" : [ "obj-10", 0 ],
					"disabled" : 0,
					"hidden" : 0,
					"source" : [ "obj-20", 0 ]
				}

			}
, 			{
				"patchline" : 				{
					"destination" : [ "obj-11", 0 ],
					"disabled" : 0,
					"hidden" : 0,
					"source" : [ "obj-21", 1 ]
				}

			}
, 			{
				"patchline" : 				{
					"destination" : [ "obj-8", 0 ],
					"disabled" : 0,
					"hidden" : 0,
					"source" : [ "obj-21", 0 ]
				}

			}
, 			{
				"patchline" : 				{
					"destination" : [ "obj-10", 1 ],
					"disabled" : 0,
					"hidden" : 0,
					"source" : [ "obj-22", 0 ]
				}

			}
, 			{
				"patchline" : 				{
					"destination" : [ "obj-80", 0 ],
					"disabled" : 0,
					"hidden" : 0,
					"source" : [ "obj-24", 0 ]
				}

			}
, 			{
				"patchline" : 				{
					"destination" : [ "obj-10", 1 ],
					"disabled" : 0,
					"hidden" : 0,
					"source" : [ "obj-29", 0 ]
				}

			}
, 			{
				"patchline" : 				{
					"destination" : [ "obj-58", 2 ],
					"disabled" : 0,
					"hidden" : 0,
					"source" : [ "obj-3", 0 ]
				}

			}
, 			{
				"patchline" : 				{
					"destination" : [ "obj-58", 0 ],
					"disabled" : 0,
					"hidden" : 0,
					"source" : [ "obj-4", 0 ]
				}

			}
, 			{
				"patchline" : 				{
					"destination" : [ "obj-10", 1 ],
					"disabled" : 0,
					"hidden" : 0,
					"source" : [ "obj-5", 0 ]
				}

			}
, 			{
				"patchline" : 				{
					"destination" : [ "obj-13", 0 ],
					"disabled" : 0,
					"hidden" : 0,
					"source" : [ "obj-58", 0 ]
				}

			}
, 			{
				"patchline" : 				{
					"destination" : [ "obj-2", 1 ],
					"disabled" : 0,
					"hidden" : 0,
					"source" : [ "obj-58", 0 ]
				}

			}
, 			{
				"patchline" : 				{
					"destination" : [ "obj-12", 0 ],
					"disabled" : 0,
					"hidden" : 0,
					"source" : [ "obj-6", 0 ]
				}

			}
, 			{
				"patchline" : 				{
					"destination" : [ "obj-19", 0 ],
					"disabled" : 0,
					"hidden" : 0,
					"midpoints" : [ 324.5, 113.0 ],
					"source" : [ "obj-6", 0 ]
				}

			}
, 			{
				"patchline" : 				{
					"destination" : [ "obj-90", 0 ],
					"disabled" : 0,
					"hidden" : 0,
					"source" : [ "obj-62", 0 ]
				}

			}
, 			{
				"patchline" : 				{
					"destination" : [ "obj-10", 1 ],
					"disabled" : 0,
					"hidden" : 0,
					"source" : [ "obj-7", 0 ]
				}

			}
, 			{
				"patchline" : 				{
					"destination" : [ "obj-58", 3 ],
					"disabled" : 0,
					"hidden" : 0,
					"source" : [ "obj-71", 0 ]
				}

			}
, 			{
				"patchline" : 				{
					"destination" : [ "obj-90", 0 ],
					"disabled" : 0,
					"hidden" : 0,
					"source" : [ "obj-74", 0 ]
				}

			}
, 			{
				"patchline" : 				{
					"destination" : [ "obj-90", 0 ],
					"disabled" : 0,
					"hidden" : 0,
					"source" : [ "obj-80", 0 ]
				}

			}
, 			{
				"patchline" : 				{
					"destination" : [ "obj-90", 0 ],
					"disabled" : 0,
					"hidden" : 0,
					"source" : [ "obj-84", 0 ]
				}

			}
, 			{
				"patchline" : 				{
					"destination" : [ "obj-90", 0 ],
					"disabled" : 0,
					"hidden" : 0,
					"source" : [ "obj-86", 0 ]
				}

			}
, 			{
				"patchline" : 				{
					"destination" : [ "obj-10", 1 ],
					"disabled" : 0,
					"hidden" : 0,
					"source" : [ "obj-9", 0 ]
				}

			}
, 			{
				"patchline" : 				{
					"destination" : [ "obj-1", 0 ],
					"disabled" : 0,
					"hidden" : 0,
					"source" : [ "obj-90", 0 ]
				}

			}
, 			{
				"patchline" : 				{
					"destination" : [ "obj-3", 0 ],
					"disabled" : 0,
					"hidden" : 0,
					"source" : [ "obj-90", 2 ]
				}

			}
, 			{
				"patchline" : 				{
					"destination" : [ "obj-4", 0 ],
					"disabled" : 0,
					"hidden" : 0,
					"source" : [ "obj-90", 0 ]
				}

			}
, 			{
				"patchline" : 				{
					"destination" : [ "obj-58", 0 ],
					"disabled" : 0,
					"hidden" : 0,
					"source" : [ "obj-90", 1 ]
				}

			}
, 			{
				"patchline" : 				{
					"destination" : [ "obj-58", 1 ],
					"disabled" : 0,
					"hidden" : 0,
					"source" : [ "obj-90", 0 ]
				}

			}
, 			{
				"patchline" : 				{
					"destination" : [ "obj-71", 0 ],
					"disabled" : 0,
					"hidden" : 0,
					"source" : [ "obj-90", 3 ]
				}

			}
 ],
		"dependency_cache" : [ 			{
				"name" : "py.mxo",
				"type" : "iLaX"
			}
, 			{
				"name" : "OSC-route.mxo",
				"type" : "iLaX"
			}
 ]
	}

}
